<svg width="100" height="24" viewBox="0 0 100 24" fill="none" xmlns="http://www.w3.org/2000/svg">
<path d="M0.98 11V0.92H2.884V5.064H7.392V0.92H9.296V11H7.392V6.842H2.884V11H0.98ZM14.7753 11.21C14.0006 11.21 13.3169 11.0443 12.7243 10.713C12.1363 10.377 11.6743 9.91733 11.3383 9.334C11.0069 8.746 10.8413 8.074 10.8413 7.318C10.8413 6.492 11.0046 5.77333 11.3313 5.162C11.6579 4.55067 12.1083 4.077 12.6823 3.741C13.2563 3.40033 13.9166 3.23 14.6633 3.23C15.4566 3.23 16.1309 3.41667 16.6863 3.79C17.2416 4.16333 17.6523 4.68833 17.9183 5.365C18.1843 6.04167 18.2776 6.83733 18.1983 7.752H16.3153V7.052C16.3153 6.282 16.1916 5.729 15.9443 5.393C15.7016 5.05233 15.3026 4.882 14.7473 4.882C14.0986 4.882 13.6203 5.08033 13.3123 5.477C13.0089 5.869 12.8573 6.45 12.8573 7.22C12.8573 7.92467 13.0089 8.47067 13.3123 8.858C13.6203 9.24067 14.0706 9.432 14.6633 9.432C15.0366 9.432 15.3563 9.35033 15.6223 9.187C15.8883 9.02367 16.0913 8.788 16.2313 8.48L18.1353 9.026C17.8506 9.71667 17.4003 10.2533 16.7843 10.636C16.1729 11.0187 15.5033 11.21 14.7753 11.21ZM12.2693 7.752V6.338H17.2812V7.752H12.2693ZM19.7648 11V3.44H23.3068C23.5868 3.44 23.8318 3.45633 24.0418 3.489C24.2518 3.517 24.4268 3.552 24.5668 3.594C24.9122 3.69667 25.2272 3.89733 25.5118 4.196C25.7965 4.49467 25.9388 4.92867 25.9388 5.498C25.9388 5.834 25.8852 6.107 25.7778 6.317C25.6705 6.52233 25.5282 6.69267 25.3508 6.828C25.2668 6.88867 25.1828 6.94 25.0988 6.982C25.0148 7.024 24.9308 7.05667 24.8468 7.08C25.0428 7.108 25.2202 7.15933 25.3788 7.234C25.6308 7.346 25.8502 7.52333 26.0368 7.766C26.2235 8.004 26.3168 8.35867 26.3168 8.83C26.3168 9.334 26.1932 9.76333 25.9458 10.118C25.7032 10.4727 25.3368 10.72 24.8468 10.86C24.6788 10.9067 24.4805 10.9417 24.2518 10.965C24.0278 10.9883 23.7922 11 23.5448 11H19.7648ZM21.6968 9.558H23.4048C23.5028 9.558 23.6032 9.54867 23.7058 9.53C23.8132 9.50667 23.9088 9.47867 23.9928 9.446C24.1282 9.39 24.2238 9.29433 24.2798 9.159C24.3405 9.02367 24.3708 8.886 24.3708 8.746C24.3708 8.55 24.3265 8.396 24.2378 8.284C24.1538 8.172 24.0582 8.09267 23.9508 8.046C23.8622 8.004 23.7642 7.98067 23.6568 7.976C23.5542 7.96667 23.4702 7.962 23.4048 7.962H21.6968V9.558ZM21.6968 6.492H22.8588C23.0082 6.492 23.1482 6.485 23.2788 6.471C23.4142 6.45233 23.5262 6.422 23.6148 6.38C23.7362 6.324 23.8272 6.23533 23.8878 6.114C23.9485 5.988 23.9788 5.848 23.9788 5.694C23.9788 5.53067 23.9438 5.38367 23.8738 5.253C23.8085 5.11767 23.6988 5.02667 23.5448 4.98C23.4422 4.94267 23.3115 4.92167 23.1528 4.917C22.9988 4.91233 22.9008 4.91 22.8588 4.91H21.6968V6.492ZM31.2362 11.21C30.4615 11.21 29.7779 11.0443 29.1852 10.713C28.5972 10.377 28.1352 9.91733 27.7992 9.334C27.4679 8.746 27.3022 8.074 27.3022 7.318C27.3022 6.492 27.4655 5.77333 27.7922 5.162C28.1189 4.55067 28.5692 4.077 29.1432 3.741C29.7172 3.40033 30.3775 3.23 31.1242 3.23C31.9175 3.23 32.5919 3.41667 33.1472 3.79C33.7025 4.16333 34.1132 4.68833 34.3792 5.365C34.6452 6.04167 34.7385 6.83733 34.6592 7.752H32.7762V7.052C32.7762 6.282 32.6525 5.729 32.4052 5.393C32.1625 5.05233 31.7635 4.882 31.2082 4.882C30.5595 4.882 30.0812 5.08033 29.7732 5.477C29.4699 5.869 29.3182 6.45 29.3182 7.22C29.3182 7.92467 29.4699 8.47067 29.7732 8.858C30.0812 9.24067 30.5315 9.432 31.1242 9.432C31.4975 9.432 31.8172 9.35033 32.0832 9.187C32.3492 9.02367 32.5522 8.788 32.6922 8.48L34.5962 9.026C34.3115 9.71667 33.8612 10.2533 33.2452 10.636C32.6339 11.0187 31.9642 11.21 31.2362 11.21ZM28.7302 7.752V6.338H33.7422V7.752H28.7302ZM39.9498 11.21C39.1984 11.21 38.5708 11.035 38.0668 10.685C37.5628 10.335 37.1824 9.859 36.9258 9.257C36.6738 8.655 36.5478 7.976 36.5478 7.22C36.5478 6.464 36.6738 5.785 36.9258 5.183C37.1778 4.581 37.5488 4.105 38.0388 3.755C38.5288 3.405 39.1331 3.23 39.8518 3.23C40.5751 3.23 41.2051 3.40267 41.7418 3.748C42.2784 4.09333 42.6938 4.567 42.9878 5.169C43.2864 5.76633 43.4358 6.45 43.4358 7.22C43.4358 7.976 43.2888 8.655 42.9948 9.257C42.7054 9.859 42.2994 10.335 41.7768 10.685C41.2541 11.035 40.6451 11.21 39.9498 11.21ZM36.2258 14.36V3.44H37.9058V8.62H38.1438V14.36H36.2258ZM39.6418 9.516C40.0524 9.516 40.3884 9.41333 40.6498 9.208C40.9111 9.00267 41.1048 8.72733 41.2308 8.382C41.3568 8.032 41.4198 7.64467 41.4198 7.22C41.4198 6.8 41.3544 6.41733 41.2238 6.072C41.0931 5.722 40.8901 5.44433 40.6148 5.239C40.3441 5.029 39.9964 4.924 39.5718 4.924C39.1751 4.924 38.8531 5.01967 38.6058 5.211C38.3631 5.40233 38.1858 5.67067 38.0738 6.016C37.9618 6.36133 37.9058 6.76267 37.9058 7.22C37.9058 7.67733 37.9618 8.07867 38.0738 8.424C38.1858 8.76933 38.3678 9.03767 38.6198 9.229C38.8764 9.42033 39.2171 9.516 39.6418 9.516ZM48.3781 11.21C47.6174 11.21 46.9501 11.0397 46.3761 10.699C45.8021 10.3583 45.3541 9.88933 45.0321 9.292C44.7148 8.69 44.5561 7.99933 44.5561 7.22C44.5561 6.43133 44.7194 5.73833 45.0461 5.141C45.3728 4.539 45.8231 4.07 46.3971 3.734C46.9711 3.398 47.6314 3.23 48.3781 3.23C49.1388 3.23 49.8061 3.40033 50.3801 3.741C50.9588 4.08167 51.4091 4.553 51.7311 5.155C52.0531 5.75233 52.2141 6.44067 52.2141 7.22C52.2141 8.004 52.0508 8.697 51.7241 9.299C51.4021 9.89633 50.9518 10.3653 50.3731 10.706C49.7991 11.042 49.1341 11.21 48.3781 11.21ZM48.3781 9.432C48.9894 9.432 49.4444 9.22667 49.7431 8.816C50.0464 8.40067 50.1981 7.86867 50.1981 7.22C50.1981 6.548 50.0441 6.01133 49.7361 5.61C49.4328 5.20867 48.9801 5.008 48.3781 5.008C47.9628 5.008 47.6221 5.10133 47.3561 5.288C47.0901 5.47467 46.8918 5.73367 46.7611 6.065C46.6351 6.39633 46.5721 6.78133 46.5721 7.22C46.5721 7.89667 46.7238 8.43567 47.0271 8.837C47.3351 9.23367 47.7854 9.432 48.3781 9.432ZM58.2054 11V8.592H56.9874C56.8288 8.592 56.6118 8.58967 56.3364 8.585C56.0658 8.57567 55.8114 8.55 55.5734 8.508C54.9714 8.40067 54.4768 8.13933 54.0894 7.724C53.7068 7.30867 53.5154 6.744 53.5154 6.03C53.5154 5.33467 53.6998 4.77467 54.0684 4.35C54.4371 3.92533 54.9294 3.65467 55.5454 3.538C55.7974 3.48667 56.0564 3.45867 56.3224 3.454C56.5931 3.44467 56.8148 3.44 56.9874 3.44H60.1094V11H58.2054ZM53.3334 11L55.0414 8.2H57.0014L55.3214 11H53.3334ZM56.7774 7.122H58.2054V4.91H56.7774C56.6934 4.91 56.6001 4.91467 56.4974 4.924C56.3994 4.93333 56.2968 4.952 56.1894 4.98C56.0588 5.01733 55.9374 5.08733 55.8254 5.19C55.7134 5.288 55.6224 5.40933 55.5524 5.554C55.4824 5.694 55.4474 5.848 55.4474 6.016C55.4474 6.282 55.5268 6.50833 55.6854 6.695C55.8441 6.877 56.0214 6.996 56.2174 7.052C56.3154 7.08 56.4134 7.09867 56.5114 7.108C56.6141 7.11733 56.7028 7.122 56.7774 7.122ZM63.9139 11V5.12H61.4359V3.44H68.2959V5.12H65.8179V11H63.9139ZM69.6125 11V3.44H71.5165V6.324H74.6245V3.44H76.5285V11H74.6245V8.102H71.5165V11H69.6125ZM78.4719 11V3.44H80.3759V5.848H81.0619C81.2719 5.848 81.5169 5.85267 81.7969 5.862C82.0769 5.87133 82.3079 5.89467 82.4899 5.932C82.9332 6.03 83.3065 6.18633 83.6099 6.401C83.9132 6.61567 84.1419 6.89333 84.2959 7.234C84.4545 7.57 84.5339 7.97133 84.5339 8.438C84.5339 9.11 84.3589 9.65133 84.0089 10.062C83.6635 10.468 83.1619 10.748 82.5039 10.902C82.3219 10.944 82.0885 10.972 81.8039 10.986C81.5192 10.9953 81.2719 11 81.0619 11H78.4719ZM80.3759 9.53H81.2719C81.3559 9.53 81.4492 9.52533 81.5519 9.516C81.6545 9.50667 81.7572 9.488 81.8599 9.46C82.0559 9.404 82.2285 9.28033 82.3779 9.089C82.5272 8.89767 82.6019 8.68067 82.6019 8.438C82.6019 8.172 82.5249 7.94567 82.3709 7.759C82.2169 7.56767 82.0372 7.444 81.8319 7.388C81.7339 7.36 81.6359 7.34133 81.5379 7.332C81.4399 7.32267 81.3512 7.318 81.2719 7.318H80.3759V9.53ZM85.2899 11V3.44H87.1939V11H85.2899ZM92.7619 2.6C92.3513 2.6 91.9779 2.49967 91.6419 2.299C91.3059 2.09833 91.0376 1.83 90.8369 1.494C90.6363 1.158 90.5359 0.784666 90.5359 0.373999H92.0059C92.0059 0.583999 92.0783 0.763666 92.2229 0.912999C92.3723 1.05767 92.5519 1.13 92.7619 1.13C92.9719 1.13 93.1493 1.05767 93.2939 0.912999C93.4433 0.763666 93.5179 0.583999 93.5179 0.373999H94.9879C94.9879 0.784666 94.8876 1.158 94.6869 1.494C94.4863 1.83 94.2179 2.09833 93.8819 2.299C93.5459 2.49967 93.1726 2.6 92.7619 2.6ZM95.8839 3.44V11H94.0639V6.38L90.6479 11H89.1359V3.44H90.9559V7.906L94.3859 3.44H95.8839ZM4.165 23.224C3.437 23.2147 2.821 23.0537 2.317 22.741C1.813 22.4237 1.41633 21.9873 1.127 21.432C0.842333 20.872 0.665 20.2233 0.595 19.486C0.557667 19.0893 0.548333 18.6437 0.567 18.149C0.590333 17.6497 0.644 17.1597 0.728 16.679C0.812 16.1983 0.931 15.7853 1.085 15.44C1.23433 15.118 1.42567 14.824 1.659 14.558C1.897 14.2873 2.149 14.0587 2.415 13.872C2.72767 13.6527 3.06367 13.4847 3.423 13.368C3.78233 13.2467 4.16033 13.1533 4.557 13.088C4.95367 13.0227 5.36433 12.9643 5.789 12.913C6.21833 12.8617 6.65233 12.794 7.091 12.71L7.259 14.39C6.993 14.46 6.68967 14.5113 6.349 14.544C6.00833 14.5767 5.65833 14.6117 5.299 14.649C4.93967 14.6817 4.59667 14.7353 4.27 14.81C3.94333 14.8847 3.661 14.9967 3.423 15.146C3.101 15.3467 2.85367 15.6267 2.681 15.986C2.513 16.3407 2.415 16.7 2.387 17.064C2.67633 16.644 3.02867 16.3547 3.444 16.196C3.864 16.0373 4.277 15.958 4.683 15.958C5.35033 15.958 5.922 16.119 6.398 16.441C6.87867 16.7583 7.24733 17.1877 7.504 17.729C7.76067 18.2657 7.889 18.8607 7.889 19.514C7.889 20.256 7.728 20.907 7.406 21.467C7.08867 22.027 6.65 22.4633 6.09 22.776C5.53 23.084 4.88833 23.2333 4.165 23.224ZM4.249 21.446C4.79033 21.446 5.19867 21.278 5.474 20.942C5.74933 20.606 5.887 20.158 5.887 19.598C5.887 19.024 5.74467 18.5737 5.46 18.247C5.18 17.9157 4.77633 17.75 4.249 17.75C3.71233 17.75 3.304 17.9157 3.024 18.247C2.74867 18.5737 2.611 19.024 2.611 19.598C2.611 20.1907 2.75333 20.648 3.038 20.97C3.32267 21.2873 3.72633 21.446 4.249 21.446ZM8.72922 23V21.418C9.00455 21.4693 9.21689 21.467 9.36622 21.411C9.51555 21.3503 9.62755 21.2337 9.70222 21.061C9.78155 20.8837 9.84922 20.6433 9.90522 20.34C9.97989 19.9387 10.0452 19.4697 10.1012 18.933C10.1619 18.3963 10.2132 17.8293 10.2552 17.232C10.2972 16.63 10.3346 16.0327 10.3672 15.44H16.0792V23H14.1752V17.218H12.0332C12.0146 17.4607 11.9889 17.75 11.9562 18.086C11.9282 18.422 11.8956 18.772 11.8582 19.136C11.8256 19.4953 11.7882 19.8407 11.7462 20.172C11.7042 20.4987 11.6599 20.7787 11.6132 21.012C11.5012 21.6047 11.3356 22.0713 11.1162 22.412C10.8969 22.7527 10.5959 22.9697 10.2132 23.063C9.83055 23.161 9.33589 23.14 8.72922 23ZM21.4445 23.21C20.6838 23.21 20.0165 23.0397 19.4425 22.699C18.8685 22.3583 18.4205 21.8893 18.0985 21.292C17.7812 20.69 17.6225 19.9993 17.6225 19.22C17.6225 18.4313 17.7858 17.7383 18.1125 17.141C18.4392 16.539 18.8895 16.07 19.4635 15.734C20.0375 15.398 20.6978 15.23 21.4445 15.23C22.2052 15.23 22.8725 15.4003 23.4465 15.741C24.0252 16.0817 24.4755 16.553 24.7975 17.155C25.1195 17.7523 25.2805 18.4407 25.2805 19.22C25.2805 20.004 25.1172 20.697 24.7905 21.299C24.4685 21.8963 24.0182 22.3653 23.4395 22.706C22.8655 23.042 22.2005 23.21 21.4445 23.21ZM21.4445 21.432C22.0558 21.432 22.5108 21.2267 22.8095 20.816C23.1128 20.4007 23.2645 19.8687 23.2645 19.22C23.2645 18.548 23.1105 18.0113 22.8025 17.61C22.4992 17.2087 22.0465 17.008 21.4445 17.008C21.0292 17.008 20.6885 17.1013 20.4225 17.288C20.1565 17.4747 19.9582 17.7337 19.8275 18.065C19.7015 18.3963 19.6385 18.7813 19.6385 19.22C19.6385 19.8967 19.7902 20.4357 20.0935 20.837C20.4015 21.2337 20.8518 21.432 21.4445 21.432ZM26.8198 23V15.44H32.2798V17.218H28.7238V23H26.8198Z" fill="#111111"/>
<line x1="73" y1="17.5" x2="96" y2="17.5" stroke="#111111"/>
</svg>
